<mxfile host="65bd71144e">
    <diagram id="tt1VoeIsCD4RoumhvX6M" name="第 1 页">
        <mxGraphModel dx="820" dy="443" grid="0" gridSize="10" guides="1" tooltips="1" connect="1" arrows="1" fold="1" page="0" pageScale="1" pageWidth="827" pageHeight="1169" math="0" shadow="0">
            <root>
                <mxCell id="0"/>
                <mxCell id="1" parent="0"/>
                <mxCell id="2" value="" style="verticalLabelPosition=bottom;shadow=0;dashed=0;align=center;html=1;verticalAlign=top;shape=mxgraph.electrical.logic_gates.logic_gate;operation=and;metaEdit=0;dropTarget=0;snapToPoint=0;noLabel=0;negating=0;portConstraintRotation=0;allowArrows=1;fixDash=0;autosize=0;container=0;connectable=1;collapsible=0;recursiveResize=1;expand=1;backgroundOutline=0;movableLabel=0;" parent="1" vertex="1">
                    <mxGeometry x="280" y="50" width="100" height="60" as="geometry"/>
                </mxCell>
                <mxCell id="3" value="" style="verticalLabelPosition=bottom;shadow=0;dashed=0;align=center;html=1;verticalAlign=top;shape=mxgraph.electrical.logic_gates.logic_gate;operation=xor;" parent="1" vertex="1">
                    <mxGeometry x="280" y="170" width="100" height="60" as="geometry"/>
                </mxCell>
                <mxCell id="4" value="&lt;font style=&quot;font-size: 18px&quot;&gt;加数A&lt;/font&gt;" style="text;html=1;align=center;verticalAlign=middle;resizable=0;points=[];autosize=1;strokeColor=none;fillColor=none;" parent="1" vertex="1">
                    <mxGeometry x="100" y="70" width="60" height="20" as="geometry"/>
                </mxCell>
                <mxCell id="5" value="&lt;span style=&quot;font-size: 18px&quot;&gt;被加数B&lt;/span&gt;" style="text;html=1;align=center;verticalAlign=middle;resizable=0;points=[];autosize=1;strokeColor=none;fillColor=none;" parent="1" vertex="1">
                    <mxGeometry x="90" y="190" width="80" height="20" as="geometry"/>
                </mxCell>
                <mxCell id="13" value="" style="endArrow=classic;html=1;rounded=0;fontSize=18;strokeColor=default;strokeWidth=1;jumpStyle=sharp;exitX=1.021;exitY=0.5;exitDx=0;exitDy=0;exitPerimeter=0;entryX=0.2;entryY=0.25;entryDx=0;entryDy=0;entryPerimeter=0;" parent="1" source="4" target="2" edge="1">
                    <mxGeometry width="50" height="50" relative="1" as="geometry">
                        <mxPoint x="200" y="120" as="sourcePoint"/>
                        <mxPoint x="260" y="80" as="targetPoint"/>
                        <Array as="points">
                            <mxPoint x="220" y="80"/>
                            <mxPoint x="220" y="65"/>
                        </Array>
                    </mxGeometry>
                </mxCell>
                <mxCell id="14" value="" style="endArrow=classic;html=1;rounded=0;fontSize=18;strokeColor=default;strokeWidth=1;jumpStyle=sharp;entryX=0.211;entryY=0.748;entryDx=0;entryDy=0;entryPerimeter=0;" parent="1" target="2" edge="1">
                    <mxGeometry width="50" height="50" relative="1" as="geometry">
                        <mxPoint x="160" y="80" as="sourcePoint"/>
                        <mxPoint x="310" y="75" as="targetPoint"/>
                        <Array as="points">
                            <mxPoint x="220" y="80"/>
                            <mxPoint x="220" y="95"/>
                        </Array>
                    </mxGeometry>
                </mxCell>
                <mxCell id="17" value="" style="endArrow=classic;html=1;rounded=0;fontSize=18;strokeColor=default;strokeWidth=1;jumpStyle=sharp;exitX=1.021;exitY=0.5;exitDx=0;exitDy=0;exitPerimeter=0;entryX=0.2;entryY=0.25;entryDx=0;entryDy=0;entryPerimeter=0;" parent="1" edge="1">
                    <mxGeometry width="50" height="50" relative="1" as="geometry">
                        <mxPoint x="161.26" y="200" as="sourcePoint"/>
                        <mxPoint x="300" y="185" as="targetPoint"/>
                        <Array as="points">
                            <mxPoint x="220" y="200"/>
                            <mxPoint x="220" y="185"/>
                        </Array>
                    </mxGeometry>
                </mxCell>
                <mxCell id="18" value="" style="endArrow=classic;html=1;rounded=0;fontSize=18;strokeColor=default;strokeWidth=1;jumpStyle=sharp;entryX=0.211;entryY=0.748;entryDx=0;entryDy=0;entryPerimeter=0;" parent="1" edge="1">
                    <mxGeometry width="50" height="50" relative="1" as="geometry">
                        <mxPoint x="160" y="200" as="sourcePoint"/>
                        <mxPoint x="301.0999999999999" y="214.88" as="targetPoint"/>
                        <Array as="points">
                            <mxPoint x="220" y="200"/>
                            <mxPoint x="220" y="215"/>
                        </Array>
                    </mxGeometry>
                </mxCell>
                <mxCell id="19" value="" style="endArrow=classic;html=1;rounded=0;fontSize=18;strokeColor=default;strokeWidth=1;jumpStyle=sharp;" parent="1" edge="1">
                    <mxGeometry width="50" height="50" relative="1" as="geometry">
                        <mxPoint x="360" y="80" as="sourcePoint"/>
                        <mxPoint x="440" y="80" as="targetPoint"/>
                    </mxGeometry>
                </mxCell>
                <mxCell id="20" value="" style="endArrow=classic;html=1;rounded=0;fontSize=18;strokeColor=default;strokeWidth=1;jumpStyle=sharp;" parent="1" edge="1">
                    <mxGeometry width="50" height="50" relative="1" as="geometry">
                        <mxPoint x="320.0000000000001" y="199.57999999999993" as="sourcePoint"/>
                        <mxPoint x="440" y="200" as="targetPoint"/>
                    </mxGeometry>
                </mxCell>
                <mxCell id="21" value="进位信号C" style="text;html=1;align=center;verticalAlign=middle;resizable=0;points=[];autosize=1;strokeColor=none;fillColor=none;fontSize=18;" parent="1" vertex="1">
                    <mxGeometry x="440" y="65" width="100" height="30" as="geometry"/>
                </mxCell>
                <mxCell id="22" value="和S" style="text;html=1;align=center;verticalAlign=middle;resizable=0;points=[];autosize=1;strokeColor=none;fillColor=none;fontSize=18;" parent="1" vertex="1">
                    <mxGeometry x="440" y="185" width="50" height="30" as="geometry"/>
                </mxCell>
                <mxCell id="23" value="&lt;p&gt;&lt;b&gt;&lt;font style=&quot;font-size: 24px&quot;&gt;半加器(half adder)&lt;/font&gt;&lt;/b&gt;&lt;/p&gt;" style="text;html=1;align=center;verticalAlign=middle;resizable=0;points=[];autosize=1;strokeColor=none;fillColor=none;fontSize=18;" parent="1" vertex="1">
                    <mxGeometry x="419" y="274" width="212" height="64" as="geometry"/>
                </mxCell>
                <mxCell id="24" value="" style="swimlane;startSize=0;fontSize=18;gradientColor=#ffffff;collapsible=0;" parent="1" vertex="1">
                    <mxGeometry x="640" y="80" width="120" height="120" as="geometry"/>
                </mxCell>
                <mxCell id="25" value="" style="endArrow=classic;html=1;rounded=0;fontSize=18;strokeColor=default;strokeWidth=1;jumpStyle=sharp;entryX=-0.014;entryY=0.341;entryDx=0;entryDy=0;entryPerimeter=0;" parent="1" target="24" edge="1">
                    <mxGeometry width="50" height="50" relative="1" as="geometry">
                        <mxPoint x="600" y="121" as="sourcePoint"/>
                        <mxPoint x="740" y="100" as="targetPoint"/>
                    </mxGeometry>
                </mxCell>
                <mxCell id="26" value="" style="endArrow=classic;html=1;rounded=0;fontSize=18;strokeColor=default;strokeWidth=1;jumpStyle=sharp;entryX=-0.014;entryY=0.341;entryDx=0;entryDy=0;entryPerimeter=0;" parent="1" edge="1">
                    <mxGeometry width="50" height="50" relative="1" as="geometry">
                        <mxPoint x="601.68" y="160.07999999999987" as="sourcePoint"/>
                        <mxPoint x="639.9999999999999" y="159.99999999999994" as="targetPoint"/>
                    </mxGeometry>
                </mxCell>
                <mxCell id="28" value="" style="endArrow=classic;html=1;rounded=0;fontSize=18;strokeColor=default;strokeWidth=1;jumpStyle=sharp;entryX=-0.014;entryY=0.341;entryDx=0;entryDy=0;entryPerimeter=0;" parent="1" edge="1">
                    <mxGeometry width="50" height="50" relative="1" as="geometry">
                        <mxPoint x="759.9999999999998" y="120.07999999999993" as="sourcePoint"/>
                        <mxPoint x="798.3199999999999" y="120" as="targetPoint"/>
                    </mxGeometry>
                </mxCell>
                <mxCell id="30" value="" style="endArrow=classic;html=1;rounded=0;fontSize=18;strokeColor=default;strokeWidth=1;jumpStyle=sharp;entryX=-0.014;entryY=0.341;entryDx=0;entryDy=0;entryPerimeter=0;" parent="1" edge="1">
                    <mxGeometry width="50" height="50" relative="1" as="geometry">
                        <mxPoint x="759.9999999999998" y="160.07999999999987" as="sourcePoint"/>
                        <mxPoint x="798.3199999999999" y="160" as="targetPoint"/>
                    </mxGeometry>
                </mxCell>
                <mxCell id="31" value="&lt;font style=&quot;font-size: 18px&quot;&gt;加数A&lt;/font&gt;" style="text;html=1;align=center;verticalAlign=middle;resizable=0;points=[];autosize=1;strokeColor=none;fillColor=none;" parent="1" vertex="1">
                    <mxGeometry x="580" y="90" width="60" height="20" as="geometry"/>
                </mxCell>
                <mxCell id="32" value="&lt;span style=&quot;font-size: 18px&quot;&gt;被加数B&lt;/span&gt;" style="text;html=1;align=center;verticalAlign=middle;resizable=0;points=[];autosize=1;strokeColor=none;fillColor=none;" parent="1" vertex="1">
                    <mxGeometry x="560" y="170" width="80" height="20" as="geometry"/>
                </mxCell>
                <mxCell id="33" value="进位信号C" style="text;html=1;align=center;verticalAlign=middle;resizable=0;points=[];autosize=1;strokeColor=none;fillColor=none;fontSize=18;" parent="1" vertex="1">
                    <mxGeometry x="760" y="90" width="100" height="30" as="geometry"/>
                </mxCell>
                <mxCell id="34" value="和S" style="text;html=1;align=center;verticalAlign=middle;resizable=0;points=[];autosize=1;strokeColor=none;fillColor=none;fontSize=18;" parent="1" vertex="1">
                    <mxGeometry x="760" y="165" width="50" height="30" as="geometry"/>
                </mxCell>
                <mxCell id="35" value="half adder" style="text;html=1;align=center;verticalAlign=middle;resizable=0;points=[];autosize=1;strokeColor=none;fillColor=none;fontSize=18;" parent="1" vertex="1">
                    <mxGeometry x="650" y="125" width="100" height="30" as="geometry"/>
                </mxCell>
            </root>
        </mxGraphModel>
    </diagram>
</mxfile>